<?xml version="1.0" encoding="UTF-8"?>
<!DOCTYPE svg PUBLIC "-//W3C//DTD SVG 1.1//EN" "http://www.w3.org/Graphics/SVG/1.1/DTD/svg11.dtd">
<svg xmlns="http://www.w3.org/2000/svg" version="1.1" width="512px" height="512px" style="shape-rendering:geometricPrecision; text-rendering:geometricPrecision; image-rendering:optimizeQuality; fill-rule:evenodd; clip-rule:evenodd" xmlns:xlink="http://www.w3.org/1999/xlink">
<g><path style="opacity:0.913" fill="#2460FD" d="M 224.5,46.5 C 250.519,46.1723 276.519,46.6723 302.5,48C 314.76,48.5319 326.76,50.5319 338.5,54C 343.151,56.7909 345.651,60.9576 346,66.5C 348.075,78.77 349.575,91.1033 350.5,103.5C 354.09,103.544 356.59,105.211 358,108.5C 359.105,114.923 359.605,121.423 359.5,128C 359.333,133.5 359.167,139 359,144.5C 358.496,148.02 356.663,150.52 353.5,152C 354.143,154.746 354.476,157.579 354.5,160.5C 353.499,172.505 352.499,184.505 351.5,196.5C 360.403,195.322 368.736,197.155 376.5,202C 387.936,220.278 382.769,228.778 361,227.5C 356.808,227.342 352.641,227.009 348.5,226.5C 350.25,268.484 351.583,310.484 352.5,352.5C 353.333,353.5 354.167,354.5 355,355.5C 355.667,368.5 355.667,381.5 355,394.5C 353.972,396.361 352.472,397.695 350.5,398.5C 348.838,416.295 346.338,433.962 343,451.5C 339.217,454.098 335.05,455.932 330.5,457C 305.865,463.012 280.865,465.512 255.5,464.5C 230.135,465.512 205.135,463.012 180.5,457C 175.95,455.932 171.783,454.098 168,451.5C 164.662,433.962 162.162,416.295 160.5,398.5C 158.528,397.695 157.028,396.361 156,394.5C 155.333,381.5 155.333,368.5 156,355.5C 156.833,354.5 157.667,353.5 158.5,352.5C 159.417,310.484 160.75,268.484 162.5,226.5C 153.806,227.959 145.139,227.793 136.5,226C 131.575,225.243 128.909,222.41 128.5,217.5C 129.034,211.727 131.034,206.56 134.5,202C 142.264,197.155 150.597,195.322 159.5,196.5C 158.069,181.526 156.903,166.526 156,151.5C 154.171,149.844 152.837,147.844 152,145.5C 151.833,139.833 151.667,134.167 151.5,128.5C 151.393,121.757 151.893,115.09 153,108.5C 154.41,105.211 156.91,103.544 160.5,103.5C 161.358,88.6318 163.525,73.9651 167,59.5C 167.785,57.714 168.951,56.214 170.5,55C 176.557,52.3214 182.89,50.6547 189.5,50C 201.304,48.6707 212.971,47.504 224.5,46.5 Z M 253.5,56.5 C 260.799,57.3498 268.132,57.6831 275.5,57.5C 275.335,60.8499 275.502,64.1832 276,67.5C 276.5,69.3333 277.667,70.5 279.5,71C 293.005,74.3082 306.672,75.9748 320.5,76C 322.421,75.6397 324.088,74.8064 325.5,73.5C 326.438,69.4953 326.605,65.4953 326,61.5C 332.924,62.4294 336.257,66.4294 336,73.5C 339.697,102.394 342.197,131.394 343.5,160.5C 340.913,184.118 338.913,207.784 337.5,231.5C 341.078,289.831 341.244,348.165 338,406.5C 336.974,419.234 335.474,431.901 333.5,444.5C 307.962,451.367 281.962,454.701 255.5,454.5C 229.038,454.701 203.038,451.367 177.5,444.5C 170.993,395.048 168.827,345.381 171,295.5C 171.558,274.156 172.392,252.823 173.5,231.5C 172.087,207.784 170.087,184.118 167.5,160.5C 168.803,131.395 171.303,102.395 175,73.5C 174.743,66.4294 178.076,62.4294 185,61.5C 184.395,65.4953 184.562,69.4953 185.5,73.5C 186.912,74.8064 188.579,75.6397 190.5,76C 204.328,75.9748 217.995,74.3082 231.5,71C 233.333,70.5 234.5,69.3333 235,67.5C 235.498,64.1832 235.665,60.8499 235.5,57.5C 241.69,57.8229 247.69,57.4896 253.5,56.5 Z M 208.5,58.5 C 213.833,58.5 219.167,58.5 224.5,58.5C 224.5,59.5 224.5,60.5 224.5,61.5C 215.191,63.131 205.858,64.2976 196.5,65C 197.13,63.108 198.13,61.4413 199.5,60C 202.695,59.8195 205.695,59.3195 208.5,58.5 Z M 286.5,58.5 C 294.87,58.3773 303.203,58.8773 311.5,60C 312.87,61.4413 313.87,63.108 314.5,65C 305.142,64.2976 295.809,63.131 286.5,61.5C 286.5,60.5 286.5,59.5 286.5,58.5 Z M 240.5,171.5 C 264.215,169.745 287.215,172.912 309.5,181C 308.222,195.517 304.055,209.351 297,222.5C 296.107,223.081 295.107,223.415 294,223.5C 281.298,220.936 268.465,219.603 255.5,219.5C 241.721,219.92 228.054,221.086 214.5,223C 207.376,209.963 202.876,196.129 201,181.5C 213.828,176.439 226.994,173.106 240.5,171.5 Z M 153.5,206.5 C 156.052,207.693 158.552,209.027 161,210.5C 161.781,211.944 161.614,213.277 160.5,214.5C 154.651,216.466 148.651,216.966 142.5,216C 140.415,214.474 140.415,212.64 142.5,210.5C 146.139,208.735 149.806,207.401 153.5,206.5 Z M 356.5,206.5 C 360.666,207.222 364.666,208.555 368.5,210.5C 370.585,212.64 370.585,214.474 368.5,216C 362.349,216.966 356.349,216.466 350.5,214.5C 349.386,213.277 349.219,211.944 350,210.5C 352.314,209.267 354.481,207.933 356.5,206.5 Z M 189.5,244.5 C 191.033,266.321 191.533,288.321 191,310.5C 190.298,316.639 188.965,322.639 187,328.5C 187.5,300.506 188.333,272.506 189.5,244.5 Z M 320.5,244.5 C 321.302,245.952 321.802,247.618 322,249.5C 322.76,275.859 323.427,302.193 324,328.5C 322.035,322.639 320.702,316.639 320,310.5C 319.794,288.501 319.961,266.501 320.5,244.5 Z M 210.5,375.5 C 240.504,377.999 270.504,378.166 300.5,376C 304.285,392.498 306.952,409.165 308.5,426C 303.988,427.636 299.322,428.636 294.5,429C 268.5,432.333 242.5,432.333 216.5,429C 211.678,428.636 207.012,427.636 202.5,426C 204.095,409.005 206.761,392.171 210.5,375.5 Z"/></g>
<g><path style="opacity:0.9" fill="#2460FD" d="M 239.5,160.5 C 260.672,159.145 281.506,161.145 302,166.5C 308.758,168.196 315.091,170.863 321,174.5C 321.875,175.873 322.375,177.373 322.5,179C 319.818,194.712 315.318,209.879 309,224.5C 307.46,228.419 305.293,231.919 302.5,235C 286.965,232.616 271.298,231.116 255.5,230.5C 240.829,230.684 226.329,232.35 212,235.5C 209.333,235.833 207.333,234.833 206,232.5C 196.882,214.818 191.216,196.152 189,176.5C 191.483,173.495 194.65,171.328 198.5,170C 211.961,165.345 225.627,162.179 239.5,160.5 Z M 240.5,171.5 C 226.994,173.106 213.828,176.439 201,181.5C 202.876,196.129 207.376,209.963 214.5,223C 228.054,221.086 241.721,219.92 255.5,219.5C 268.465,219.603 281.298,220.936 294,223.5C 295.107,223.415 296.107,223.081 297,222.5C 304.055,209.351 308.222,195.517 309.5,181C 287.215,172.912 264.215,169.745 240.5,171.5 Z"/></g>
<g><path style="opacity:0.911" fill="#2460FD" d="M 180.5,208.5 C 183.157,208.162 185.49,208.829 187.5,210.5C 191.939,219.045 196.106,227.711 200,236.5C 201.976,261.461 202.643,286.461 202,311.5C 200.213,328.565 194.38,344.065 184.5,358C 181.331,358.978 178.497,358.478 176,356.5C 175.978,318.818 176.811,281.152 178.5,243.5C 177.488,232.845 177.321,222.179 178,211.5C 178.698,210.309 179.531,209.309 180.5,208.5 Z M 189.5,244.5 C 188.333,272.506 187.5,300.506 187,328.5C 188.965,322.639 190.298,316.639 191,310.5C 191.533,288.321 191.033,266.321 189.5,244.5 Z"/></g>
<g><path style="opacity:0.911" fill="#2460FD" d="M 325.5,208.5 C 328.157,208.162 330.49,208.829 332.5,210.5C 333.109,253.45 334.109,296.45 335.5,339.5C 335.333,345.167 335.167,350.833 335,356.5C 332.24,358.703 329.24,359.036 326,357.5C 316.412,343.65 310.746,328.317 309,311.5C 308.357,286.461 309.024,261.461 311,236.5C 315.082,226.666 319.916,217.332 325.5,208.5 Z M 320.5,244.5 C 319.961,266.501 319.794,288.501 320,310.5C 320.702,316.639 322.035,322.639 324,328.5C 323.427,302.193 322.76,275.859 322,249.5C 321.802,247.618 321.302,245.952 320.5,244.5 Z"/></g>
<g><path style="opacity:0.907" fill="#2460FD" d="M 203.5,363.5 C 236.834,367.447 270.167,367.447 303.5,363.5C 305.228,363.59 306.894,363.923 308.5,364.5C 311.608,372.519 313.774,380.852 315,389.5C 317.51,404.084 318.843,418.75 319,433.5C 316.058,436.122 312.558,437.622 308.5,438C 301.231,439.467 293.898,440.467 286.5,441C 265.833,441.667 245.167,441.667 224.5,441C 214.327,440.356 204.327,438.69 194.5,436C 192.051,434.137 191.051,431.637 191.5,428.5C 192.85,407.551 196.017,386.884 201,366.5C 201.698,365.309 202.531,364.309 203.5,363.5 Z M 210.5,375.5 C 206.761,392.171 204.095,409.005 202.5,426C 207.012,427.636 211.678,428.636 216.5,429C 242.5,432.333 268.5,432.333 294.5,429C 299.322,428.636 303.988,427.636 308.5,426C 306.952,409.165 304.285,392.498 300.5,376C 270.504,378.166 240.504,377.999 210.5,375.5 Z"/></g>
</svg>
